<svg width="680" height="680" viewBox="0 0 680 680" fill="none" xmlns="http://www.w3.org/2000/svg">
<path d="M237.347 270.769C239.376 266.519 239.255 263.847 243.707 262.663C242.556 251.278 234.439 225.078 235.045 205.192C228.443 196.114 230.654 195.173 232.562 188.373C230.29 172.373 233.925 145.687 248.976 126.864C270.388 100.117 295.707 107.798 295.707 107.798C295.707 107.798 296.736 100.633 304.096 98.6595C311.455 96.6861 325.204 119.638 333.048 117.543C351.401 112.625 344.345 49.1122 353.521 46.6531C362.698 44.2243 388.107 102.819 406.49 97.9005C414.334 95.8056 414.879 69.0283 422.208 67.0853C429.568 65.1119 434.019 70.8195 434.019 70.8195C434.019 70.8195 452.16 51.5107 484.02 64.0189C506.401 72.8233 522.816 94.1662 528.812 109.164C533.84 114.113 536.232 113.809 535.021 124.981C545.439 141.922 550.557 174.559 556.069 179.143C560.551 177.959 561.763 180.327 565.609 182.999C570.061 186.096 559.976 192.896 559.976 192.896C559.976 192.896 574.18 206.528 582.145 247.757C590.14 289.015 575.058 303.861 575.058 303.861C575.058 303.861 579.752 333.827 577.663 356.748C575.573 379.67 572.454 381.491 575.24 407.996C578.026 434.53 573.029 478.916 565.155 511.917C557.25 544.918 553.495 578.8 499.012 593.373C444.528 607.945 424.419 580.439 401.19 555.757C377.961 531.074 351.553 495.068 340.801 470.689C330.05 446.279 326.446 446.279 313.242 427.456C300.037 408.633 289.226 380.307 289.226 380.307C289.226 380.307 268.783 374.934 255.215 335.162C241.647 295.391 247.19 276.507 247.19 276.507C247.19 276.507 235.015 275.688 237.347 270.769Z" fill="#0B9E8C"/>
<path d="M313.176 427.486C299.972 408.663 289.16 380.337 289.16 380.337C289.16 380.337 286.374 379.609 282.164 376.664C325.593 381.552 366.509 373.931 408.242 363.275C454.851 351.374 543.405 319.071 564.998 306.927C570.117 304.043 574.659 301.189 578.657 298.518C576.719 302.252 575.053 303.922 575.053 303.922C575.053 303.922 579.747 333.887 577.658 356.808C575.568 379.73 572.449 381.552 575.235 408.056C575.75 413.035 576.022 418.621 576.022 424.663C573.084 442.15 568.542 467.379 561.727 490.877C550.522 529.495 523.538 553.965 490.83 562.709C458.122 571.452 430.047 560.917 409.574 549.199C389.798 537.874 357.06 496.494 346.52 482.194C344.309 478.157 342.371 474.301 340.796 470.688C330.015 446.34 326.381 446.309 313.176 427.486Z" fill="#004C4C"/>
<path d="M289.16 380.337C289.16 380.337 286.374 379.609 282.164 376.664C325.593 381.552 366.509 373.931 408.242 363.275C454.851 351.374 543.405 319.071 564.998 306.927C570.117 304.043 574.659 301.189 578.657 298.518C576.719 302.252 575.053 303.922 575.053 303.922C575.053 303.922 579.747 333.887 577.658 356.808C577.203 361.909 576.658 365.977 576.174 369.468C550.189 407.661 515.149 419.259 456.789 434.864C398.429 450.468 362.299 457.907 320.778 437.748C318.597 434.955 316.144 431.676 313.206 427.486C300.002 408.663 289.16 380.337 289.16 380.337Z" fill="#051219"/>
<path d="M291.919 200.79C313.755 197.663 320.266 220.039 320.266 220.039C309.091 218.915 293.373 215.302 281.592 230.998C269.811 246.694 269.145 261.449 260.059 274.231C251.852 285.768 246.128 290.109 246.764 299.733C244.947 284.128 247.188 276.538 247.188 276.538C247.188 276.538 235.044 275.658 237.376 270.77C239.405 266.519 239.253 263.848 243.736 262.633C245.431 258.17 238.89 250.52 237.497 242.808C256.94 223.439 280.35 202.46 291.919 200.79Z" fill="#051219"/>
<path d="M286.497 142.075C304.578 142.591 319.418 156.162 323.688 182.362C317.237 172.131 294.462 151.759 268.75 163.296C243.008 174.833 234.043 190.408 234.043 190.408L233.256 179.691C233.226 179.691 261.3 141.346 286.497 142.075Z" fill="#36CCAF"/>
<path d="M436.049 356.9C454.462 351.982 532.75 325.812 532.75 325.812C532.75 325.812 537.686 419.32 530.357 459.03C523.028 498.741 506.704 505.633 477.661 513.374C448.617 521.147 431.082 523.302 404.976 492.548C378.9 461.763 336.713 378.213 336.713 378.213C336.713 378.213 417.635 361.818 436.049 356.9Z" fill="#B9004D"/>
<path d="M436.047 356.9C454.46 351.982 532.748 325.812 532.748 325.812C532.748 325.812 534.958 367.951 534.201 407.692C513.85 418.925 488.834 426.303 456.762 434.864C424.69 443.425 399.341 449.528 376.112 449.953C355.73 415.889 336.711 378.213 336.711 378.213C336.711 378.213 417.633 361.818 436.047 356.9Z" fill="#8B0036"/>
<path d="M286.497 142.074C261.663 145.838 245.218 167.06 236.102 180.813L232.559 188.373C232.165 185.64 231.953 182.574 231.953 179.295C255.152 145.11 274.928 141.376 286.497 142.074Z" fill="#051219"/>
<path d="M237.344 270.771C239.373 266.52 239.222 263.848 243.704 262.634C244.491 255.864 237.617 245.815 236.314 235.067L264.692 214.939L298.096 202.977L312.149 203.888L320.265 220.039C302.7 213.724 278.744 220.07 269.235 242.748C262.966 257.716 254.576 277.146 247.157 276.539C247.126 276.569 235.012 275.689 237.344 270.771Z" fill="#0B9E8C"/>
<path d="M243.705 262.665C245.007 256.714 238.556 249.397 237.133 240.927L284.317 207.926L288.103 206.56C293.978 205.254 307.425 202.947 312.271 207.774C314.3 209.778 315.844 211.782 316.995 213.543L320.266 220.04C304.548 212.601 282.864 213.968 269.053 235.341C255.274 256.714 254.002 269.496 238.587 267.765C239.616 265.245 240.404 263.545 243.705 262.665Z" fill="#36CCAF"/>
<path d="M274.019 158.317C304.82 153.095 326.05 168.579 324.687 193.474L298.066 203.007L282.923 202.035L264.661 214.969L235.375 225.473C234.921 218.612 234.83 211.659 235.012 205.193C228.41 196.115 230.621 195.174 232.529 188.374C235.527 177.93 248.671 162.598 274.019 158.317Z" fill="#051219"/>
<path d="M287.225 166.453C324.416 165.148 330.715 189.587 320.266 220.038C311.847 214.088 293.555 209.261 275.293 223.651C257.031 238.042 257.576 258.565 243.705 262.633C236.588 249.427 231.258 220.828 235.044 205.162C242.252 186.673 250.035 167.759 287.225 166.453Z" fill="#FFD165"/>
<path d="M268.449 223.104C252.579 205.131 256.638 184.122 263.27 170.916C268.055 169.003 273.719 167.637 280.502 166.938C274.567 174.164 264.179 191.742 268.449 223.104Z" fill="#051219"/>
<path d="M483.473 149.573C463 157.77 468.451 180.418 468.451 180.418C477.567 173.861 489.409 162.901 507.428 170.612C525.448 178.354 533.322 190.801 547.587 197.329C560.428 203.219 567.545 204.129 571.785 212.812C565.576 198.361 559.913 192.896 559.913 192.896C559.913 192.896 569.998 186.065 565.546 182.999C561.669 180.327 560.458 177.929 556.006 179.143C552.584 178.05 554.159 166.21 551.554 158.832C525.085 151.759 494.345 145.231 483.473 149.573Z" fill="#051219"/>
<path d="M459.03 95.9573C443.615 105.43 437.467 124.587 446.795 149.451C447.31 137.368 456.94 108.314 484.985 105.49C513.029 102.667 528.565 111.684 528.565 111.684L523.901 101.999C523.871 101.999 480.502 82.7508 459.03 95.9573Z" fill="#36CCAF"/>
<path d="M459.035 95.9573C482.446 86.819 507.249 97.0199 521.968 104.397L528.812 109.194C527.783 106.614 526.45 103.851 524.845 101.027C487.715 82.9329 468.696 89.5817 459.035 95.9573Z" fill="#051219"/>
<path d="M565.575 183.029C561.699 180.357 560.488 177.959 556.036 179.173C551.251 177.716 552.946 161.565 548.767 151.576L514.151 148.297L479.232 154.582L467.512 162.384L468.481 180.448C480.565 166.21 504.49 159.743 524.024 174.68C536.895 184.547 553.825 197.207 559.942 192.957C559.942 192.926 570.027 186.126 565.575 183.029Z" fill="#0B9E8C"/>
<path d="M556.039 179.173C550.83 176.502 553.919 165.087 550.921 157.072L493.591 152.001L489.654 152.7C483.9 154.491 471.089 159.197 469.302 165.815C468.545 168.578 468.212 171.067 468.061 173.193L468.454 180.449C478.388 166.149 497.892 156.525 520.454 168.153C543.047 179.811 550.467 190.255 562.975 181.056C560.855 179.356 559.34 178.293 556.039 179.173Z" fill="#36CCAF"/>
<path d="M477.9 103.79C448.584 114.629 437.893 138.674 451.43 159.561L479.232 154.552L491.892 146.142L514.151 148.267L544.77 142.742C541.741 136.548 538.38 130.476 535.018 124.981C536.26 113.809 533.837 114.112 528.809 109.164C521.026 101.604 502.007 94.8643 477.9 103.79Z" fill="#051219"/>
<path d="M470.48 117.452C437.56 134.879 444.283 159.227 468.451 180.418C472.812 171.067 486.259 157.739 509.245 161.109C532.232 164.479 541.953 182.543 556.006 179.174C555.612 164.145 546.042 136.73 534.957 125.012C519.542 112.534 503.4 100.025 470.48 117.452Z" fill="#FFD165"/>
<path d="M514.909 157.224C519.724 133.726 505.762 117.513 493.467 109.377C488.379 110.106 482.776 111.745 476.537 114.538C485.29 117.817 503.006 127.896 514.909 157.224Z" fill="#051219"/>
<path d="M388.555 286.039C379.197 282.791 371.474 288.893 374.473 294.176C376.229 297.273 380.197 300.248 385.648 297.728C402.487 289.926 410.876 316.915 410.876 316.915C410.876 316.915 409.785 293.417 388.555 286.039Z" fill="#051219"/>
<path d="M402.792 268.674C402.792 268.674 384.288 258.291 366.692 269.099C349.793 279.513 359.121 300.795 359.121 300.795C359.121 300.795 353.579 278.541 371.417 270.101C389.285 261.631 402.792 268.674 402.792 268.674Z" fill="#36CCAF"/>
<path d="M442.013 271.771C448.494 264.272 458.245 265.729 458.276 271.801C458.306 275.353 456.338 279.907 450.341 280.454C431.867 282.093 437.985 309.69 437.985 309.69C437.985 309.69 427.294 288.742 442.013 271.771Z" fill="#051219"/>
<path d="M421.055 263.816C421.055 263.816 431.957 245.57 452.582 246.177C472.419 246.785 474.872 269.888 474.872 269.888C474.872 269.888 468.633 247.817 448.947 249.396C429.262 250.974 421.055 263.816 421.055 263.816Z" fill="#36CCAF"/>
<path d="M314.453 396.186C334.896 404.9 335.077 427.396 343.345 427.427C351.613 427.457 348.524 401.803 363.334 400.558C378.143 399.313 355.944 387.686 355.944 387.686L314.453 396.186Z" fill="white"/>
<path d="M339.437 374.539C362.03 371.139 411.122 359.602 435.229 353.804C459.034 346.791 507.339 332.309 528.599 323.99C557.4 312.727 570.423 303.71 570.423 303.71C570.544 312.727 567.122 329.577 547.164 343.056C514.456 365.189 487.35 372.353 443.316 384.133C399.281 395.913 372.206 403.229 332.835 400.376C308.819 398.645 297.462 385.742 293.131 377.879C293.101 377.818 308.849 379.154 339.437 374.539Z" fill="white"/>
<path d="M561.002 330.275C547.616 348.035 558.639 367.648 551.462 371.777C544.315 375.906 534.23 352.134 520.783 358.418C507.336 364.733 520.813 343.572 520.813 343.572L561.002 330.275Z" fill="white"/>
<path d="M433.412 347.002C453.673 341.598 574.42 317.553 583.536 282.7C581.174 297.819 575.056 303.922 575.056 303.922C550.768 334.039 449.282 359.298 437.531 362.425C425.78 365.582 325.233 394.333 289.194 380.337C289.194 380.337 280.865 378.121 271.295 366.19C296.492 391.874 413.151 352.437 433.412 347.002Z" fill="#051219"/>
<path d="M489.589 558.216C560.759 539.18 569.421 461.004 575.811 416.496C576.054 422.173 576.054 428.397 575.781 434.985C573.964 449.588 566.392 486.688 557.701 511.431C549.009 536.205 531.625 557.517 492.194 568.083C452.792 578.618 427.08 568.811 407.243 551.658C387.406 534.505 362.421 506.118 353.578 494.369C350.095 488.813 346.976 483.409 344.371 478.369C372.082 513.769 418.419 577.221 489.589 558.216Z" fill="#051219"/>
<path d="M363.36 219.674C343.038 165.299 310.936 93.3769 259.693 116.299C277.986 102.454 295.672 107.798 295.672 107.798C315.206 112.595 347.793 161.14 363.36 219.674Z" fill="#051219"/>
<path d="M430.896 201.61C421.508 144.291 413.634 65.9017 469.45 60.2245C446.705 57.3403 434.016 70.82 434.016 70.82C419.449 84.7248 415.3 143.076 430.896 201.61Z" fill="#051219"/>
<path d="M416.179 231.636C404.186 213.481 400.127 208.319 396.524 208.35C393.404 210.111 392.435 216.608 391.042 238.345C392.738 198.999 362.937 78.5312 348.885 59.0402C349.824 52.1485 351.096 47.2909 353.518 46.6534C355.941 46.0158 359.454 49.5679 363.694 55.0934C361.15 79.0169 395.161 198.361 416.179 231.636Z" fill="#051219"/>
<path d="M479.901 521.754C511.185 513.375 531.507 505.603 544.136 459.334C551.556 432.101 554.069 390.205 562.246 388.019C567.879 386.501 569.999 425.058 561.429 459.699C552.858 494.339 538.321 517.686 520.332 532.592C504.704 545.526 487.29 549.503 487.29 549.503C487.29 549.503 470.209 554.755 450.251 551.324C427.235 547.378 403.067 534.414 378.415 508.639C353.762 482.863 336.47 448.405 342.072 446.887C350.249 444.701 373.236 479.797 393.194 499.713C427.113 533.503 448.616 530.133 479.901 521.754Z" fill="white"/>
<path d="M269.176 564.015C252.216 567.172 254.729 577.07 234.196 580.622C213.663 584.174 211.512 580.895 203.941 591.4C196.37 601.934 152.093 598.625 181.136 566.171C210.18 533.716 239.314 533.686 239.314 533.686L269.176 564.015Z" fill="#051219"/>
<path d="M270.537 560.979C253.577 564.136 256.091 574.034 235.557 577.586C215.024 581.138 212.874 577.859 205.302 588.363C197.731 598.898 153.454 595.589 182.498 563.134C211.541 530.68 240.676 530.649 240.676 530.649L270.537 560.979Z" fill="#004C4C"/>
<path d="M305.062 490.423C287.557 459.334 262.784 444.124 218.598 430.583C174.411 417.043 154.272 434.894 151.516 439.843C148.79 444.792 241.705 480.404 261.118 489.33C280.592 498.286 319.175 515.561 305.062 490.423Z" fill="#051219"/>
<path d="M298.006 480.768C278.108 457.33 263.39 446.249 221.263 433.437C179.136 420.625 173.473 435.835 170.747 440.814C168.052 445.793 242.675 482.68 261.149 491.272C279.623 499.864 314.663 500.441 298.006 480.768Z" fill="#004C4C"/>
<path d="M310.756 504.176C300.702 468.563 257.969 464.708 243.008 467.896C223.383 472.055 207.483 500.806 215.994 531.044C224.322 560.554 251.73 576.614 270.598 571.119C285.831 566.626 321.114 540.911 310.756 504.176Z" fill="#051219"/>
<path d="M308.881 504.692C298.19 466.772 256.942 470.84 242.708 473.937C224.022 477.975 208.425 504.024 216.026 531.014C223.446 557.335 249.249 571.331 267.239 566.079C281.745 561.829 319.572 542.641 308.881 504.692Z" fill="#004C4C"/>
<path d="M303.701 506.149C285.802 442.697 232.409 482.043 243.978 523.059C255.577 564.106 321.599 569.601 303.701 506.149Z" fill="#051219"/>
<path d="M300.793 506.999C281.834 439.813 226.2 481.224 238.435 524.669C250.671 568.114 319.721 574.186 300.793 506.999Z" fill="#004C4C"/>
<path d="M293.344 509.094C272.629 435.593 209.242 481.618 222.628 529.131C236.014 576.644 314.059 582.625 293.344 509.094Z" fill="#051219"/>
<path d="M289.013 510.339C267.299 433.376 201.973 481.254 216.026 531.014C230.078 580.773 310.728 587.301 289.013 510.339Z" fill="#051219"/>
<path d="M289.014 510.339C267.299 433.377 206.153 480.07 220.206 529.83C234.258 579.59 310.728 587.301 289.014 510.339Z" fill="#004034"/>
<path d="M289.014 510.338C278.717 473.846 258.608 465.406 241.799 471.964C223.174 479.22 225.778 499.986 233.168 526.156C240.891 553.51 251.581 572.667 271.509 567.202C287.833 562.679 298.796 544.949 289.014 510.338Z" fill="#004C4C"/>
<path d="M277.567 513.587C265.634 471.235 231.563 512.221 235.319 525.549C239.074 538.877 289.499 555.909 277.567 513.587Z" fill="#051219"/>
<path d="M275.413 514.194C263.48 471.843 235.497 511.098 239.252 524.426C243.007 537.754 287.345 556.516 275.413 514.194Z" fill="#051219"/>
<path d="M104.029 512.768C102.423 522.604 105.937 526.612 103.423 541.913C100.909 557.214 98.4864 553.753 94.9127 575.643C91.0059 599.445 122.503 630.23 158.3 632.841C194.097 635.452 202.971 616.477 205.151 603.118C207.332 589.76 202.607 577.434 193.673 574.307C184.739 571.18 157.331 521.572 157.331 521.572L104.029 512.768Z" fill="#051219"/>
<path d="M104.03 512.768C102.425 522.604 105.938 526.612 103.425 541.913C100.911 557.214 98.4881 553.753 94.9145 575.643C91.0077 599.445 122.959 627.467 158.786 630.047C194.583 632.628 201.791 615.596 203.972 602.238C206.152 588.88 197.703 577.343 188.769 574.216C179.834 571.089 157.363 521.572 157.363 521.572L104.03 512.768Z" fill="#0B9E8C"/>
<path d="M151.483 586.723C151.483 586.723 143.791 582.989 139.066 579.255C139.914 579.376 140.732 579.437 141.55 579.467C142.004 579.771 142.489 580.074 142.943 580.348C173.501 598.867 187.553 589.607 196.063 578.83C201.636 584.112 205.482 592.674 203.937 602.207C201.757 615.565 194.549 632.627 158.752 630.016C152.604 629.561 146.577 628.377 140.823 626.586C148.122 618.449 151.483 586.723 151.483 586.723Z" fill="#004C4C"/>
<path d="M184.439 586.603C190.405 594.223 191.677 615.263 181.168 624.371C185.529 616.234 187.649 601.995 184.439 586.603Z" fill="#051219"/>
<path d="M167.901 583.445C175.2 606.427 168.779 622.579 161.359 627.315C167.023 619.027 169.627 605.668 167.901 583.445Z" fill="#051219"/>
<path d="M143.25 622.762C149.065 616.052 154.001 591.369 151.064 579.074C149.095 591.825 146.43 609.251 143.25 622.762Z" fill="#051219"/>
<path d="M134.434 570.603C131.103 590.883 130.043 597.35 125.046 614.533C124.258 599.444 127.983 583.202 134.434 570.603Z" fill="#051219"/>
<path d="M121.23 559.37C115.446 570.148 112.448 580.986 109.51 598.99C107.027 585.51 111.509 567.719 121.23 559.37Z" fill="#051219"/>
<path d="M147.55 445.338C141.402 453.717 142.765 459.121 133.195 472.146C123.625 485.17 123.019 480.829 109.33 499.439C94.4299 519.719 109.149 563.316 141.221 582.746C173.293 602.177 190.465 588.758 198.823 577.373C207.182 565.988 208.605 552.296 201.791 545.131C194.977 537.996 192.948 478.825 192.948 478.825L147.55 445.338Z" fill="#051219"/>
<path d="M147.549 445.337C141.401 453.717 142.764 459.121 133.194 472.145C123.624 485.169 123.018 480.828 109.329 499.439C94.4287 519.719 110.904 560.948 142.976 580.347C175.048 599.747 188.949 588.636 197.308 577.251C205.667 565.866 201.063 552.811 194.249 545.677C187.435 538.542 192.977 478.855 192.977 478.855L147.549 445.337Z" fill="#0B9E8C"/>
<path d="M171.927 545.069C171.927 545.069 176.833 550.443 182.194 553.722C187.039 556.697 195.035 558.731 201.606 561.19C202.212 566.382 201.122 571.998 197.276 577.22C188.917 588.605 175.016 599.747 142.944 580.317C142.459 580.044 142.005 579.71 141.551 579.437C161.872 580.074 171.563 549.988 171.927 545.069Z" fill="#004C4C"/>
<path d="M187.371 552.204C189.31 562.132 180.527 582.26 166.475 585.752C174.379 580.287 183.101 568.022 187.371 552.204Z" fill="#051219"/>
<path d="M173.505 541.396C169.416 566.231 155.818 578.162 146.672 579.073C155.848 574.064 164.601 562.891 173.505 541.396Z" fill="#051219"/>
<path d="M132.012 566.23C140.613 562.769 156.846 542.185 159.935 529.343C152.061 540.242 141.37 555.179 132.012 566.23Z" fill="#051219"/>
<path d="M148.459 513.556C135.769 530.831 131.741 536.326 118.961 549.927C125.381 535.506 136.526 522.209 148.459 513.556Z" fill="#051219"/>
<path d="M141.493 496.828C131.014 504.114 123.11 512.737 111.844 528.068C115.963 514.406 128.531 499.955 141.493 496.828Z" fill="#051219"/>
<path d="M158.301 442.333C190.464 411.032 245.674 441.271 261.483 455.813C282.228 474.909 284.621 518.02 257.334 544.585C230.713 570.512 189.192 567.659 170.082 547.651C154.697 531.5 125.138 474.606 158.301 442.333Z" fill="#051219"/>
<path d="M153.698 437.566C182.408 409.635 238.103 443.274 254.518 458.605C276.051 478.764 281.684 520.843 257.334 544.524C233.56 567.658 193.19 561.677 173.171 540.759C157.06 523.94 124.079 466.377 153.698 437.566Z" fill="#0B9E8C"/>
<path d="M164.661 448.89C210.604 404.17 239.253 466.316 209.544 495.219C179.864 524.152 118.748 493.61 164.661 448.89Z" fill="#051219"/>
<path d="M166.87 451.167C215.508 403.805 245.188 468.927 213.752 499.56C182.285 530.163 118.232 498.528 166.87 451.167Z" fill="#0B9E8C"/>
<path d="M173.839 458.333C231.109 402.562 267.754 480.981 230.715 517.018C193.676 553.056 116.539 514.104 173.839 458.333Z" fill="#051219"/>
<path d="M176.627 461.217C237.288 402.167 275.236 484.351 236.016 522.514C196.797 560.676 115.965 520.267 176.627 461.217Z" fill="#0B9E8C"/>
<path d="M183.71 468.564C250.065 403.958 293.979 496.313 251.064 538.088C208.15 579.833 117.355 533.17 183.71 468.564Z" fill="#051219"/>
<path d="M187.831 472.784C257.305 405.142 302.279 500.806 257.366 544.555C212.453 588.303 118.326 540.426 187.831 472.784Z" fill="#051219"/>
<path d="M187.83 472.783C257.304 405.141 298.28 496.707 253.367 540.425C208.454 584.143 118.325 540.425 187.83 472.783Z" fill="#004C4C"/>
<path d="M187.829 472.784C220.78 440.693 248.218 445.338 263.179 463.767C279.745 484.199 264.633 504.661 241.01 527.644C216.297 551.689 193.069 564.926 174.019 545.526C158.392 529.678 156.545 503.234 187.829 472.784Z" fill="#0B9E8C"/>
<path d="M198.489 483.773C240.737 442.666 283.833 545.131 270.507 558.094C257.182 571.058 156.241 524.911 198.489 483.773Z" fill="#051219"/>
<path d="M200.793 486.172C243.041 445.065 276.96 538.087 263.635 551.051C250.309 564.014 158.545 527.279 200.793 486.172Z" fill="#E6E6E6"/>
<path d="M210.299 490.301C208.633 488.327 218.113 482.377 223.746 484.32C229.379 486.263 244.309 501.2 254.213 523.818C264.116 546.406 226.623 509.852 210.299 490.301Z" fill="white"/>
</svg>
